#!OML:ASF I:\Actors\actors\Patient Classification 2\Patient 1\Session 1\actor1.ASF
:FULLY-SPECIFIED
:DEGREES

495
root -0.65819 18.1264 5.60979 0.349103 -0.314831 -2.80746
lowerback 5.27684 1.16662 1.64858
upperback -1.96366 1.66175 -0.349007
thorax -4.93724 0.76549 -1.44315
lowerneck -13.0073 -3.84159 -1.38997
upperneck 19.7663 -5.80996 3.6147
head 8.44364 -2.48522 0.794011
rclavicle -1.75179e-015 -1.39149e-014
rhumerus -55.1811 -11.34 -79.5187
rradius 43.141
rwrist 7.22833
rhand -4.16108 -42.1152
rfingers 7.12502
rthumb 21.5993 -70.9306
lclavicle -1.75179e-015 -1.39149e-014
lhumerus -44.3265 10.579 80.6836
lradius 31.5977
lwrist -13.7264
lhand -5.42081 -19.2643
lfingers 7.12502
lthumb 20.389 9.68532
rfemur 11.8656 3.11638 17.2603
rtibia -7.91737
rfoot -14.2844 -13.8977
rtoes 3.03484
lfemur 15.0279 -8.89172 -11.9396
ltibia -12.8623
lfoot -5.931 17.4542
ltoes -14.3534
496
root -0.658278 18.1277 5.60433 0.366249 -0.581223 -2.85282
lowerback 5.29288 1.15185 1.62579
upperback -1.95071 1.64067 -0.345793
thorax -4.93428 0.755924 -1.42529
lowerneck -13.0101 -3.74158 -1.20556
upperneck 19.7477 -5.67635 3.45642
head 8.42361 -2.42504 0.72617
rclavicle -4.52856e-015 5.96354e-015
rhumerus -54.9514 -11.2909 -80.1076
rradius 43.1246
rwrist 7.37738
rhand -3.89209 -41.7256
rfingers 7.12502
rthumb 21.8576 -70.5111
lclavicle -4.52856e-015 5.96354e-015
lhumerus -44.2506 10.391 80.7663
lradius 31.5272
lwrist -13.8639
lhand -5.24077 -19.128
lfingers 7.12502
lthumb 20.5621 9.80305
rfemur 11.843 3.37489 17.3319
rtibia -8.02963
rfoot -14.1765 -13.9901
rtoes 2.78125
lfemur 15.0334 -8.8424 -11.9111
ltibia -12.7856
lfoot -6.09602 17.6317
ltoes -14.0501
497
root -0.658111 18.1294 5.59886 0.423671 -0.833434 -2.82648
lowerback 5.30473 1.13023 1.49113
upperback -1.96335 1.6028 -0.334459
thorax -4.95935 0.741224 -1.33503
lowerneck -12.9631 -3.62999 -1.01542
upperneck 19.6768 -5.52457 3.29307
head 8.37664 -2.35793 0.658921
rclavicle -2.28105e-014 2.78299e-015
rhumerus -54.7422 -11.183 -80.6552
rradius 43.1392
rwrist 7.43827
rhand -3.57959 -41.4246
rfingers 7.12502
rthumb 22.1576 -70.1747
lclavicle -2.28105e-014 2.78299e-015
lhumerus -44.3421 9.86714 81.0942
lradius 31.8961
lwrist -13.0804
lhand -5.1104 -19.7793
lfingers 7.12502
lthumb 20.6873 9.13815
rfemur 11.7705 3.61872 17.3215
rtibia -8.14262
rfoot -14.0373 -14.0793
rtoes 2.41032
lfemur 14.9838 -8.83044 -11.9624
ltibia -12.6965
lfoot -6.23452 17.8267
ltoes -13.8385
498
root -0.656697 18.1308 5.59392 0.479901 -1.13091 -2.75453
lowerback 5.33338 1.13957 1.31683
upperback -1.97898 1.6046 -0.301076
thorax -4.99738 0.747705 -1.20387
lowerneck -12.951 -3.53603 -0.945326
upperneck 19.632 -5.37515 3.14349
head 8.34913 -2.29835 0.614885
rclavicle 2.83889e-015 -1.19271e-015
rhumerus -54.5958 -11.0289 -81.1169
rradius 43.248
rwrist 7.35707
rhand -3.35748 -41.1658
rfingers 7.12502
rthumb 22.3708 -69.8905
lclavicle 2.83889e-015 -1.19271e-015
lhumerus -44.6699 8.95061 81.7356
lradius 32.7708
lwrist -11.4879
lhand -5.14146 -21.215
lfingers 7.12502
lthumb 20.6575 7.70571
rfemur 11.7053 3.90721 17.2652
rtibia -8.29065
rfoot -13.8763 -14.1907
rtoes 2.17253
lfemur 14.9134 -8.81702 -12.0773
ltibia -12.5361
lfoot -6.42187 18.0325
ltoes -13.6037
499
root -0.654137 18.1328 5.59005 0.566308 -1.44429 -2.73832
lowerback 5.30361 1.15991 1.22034
upperback -1.9875 1.62785 -0.227564
thorax -4.99336 0.763539 -1.07522
lowerneck -12.9937 -3.46367 -1.02316
upperneck 19.6405 -5.24026 3.06102
head 8.35617 -2.2481 0.614565
rclavicle -6.9761e-015 -5.56597e-015
rhumerus -54.539 -10.9378 -81.443
rradius 43.5698
rwrist 7.38749
rhand -2.95336 -40.947
rfingers 7.12502
rthumb 22.7587 -69.6246
lclavicle -6.9761e-015 -5.56597e-015
lhumerus -45.1125 7.61743 82.7377
lradius 34.1356
lwrist -9.37071
lhand -5.2293 -22.235
lfingers 7.12502
lthumb 20.5731 6.6948
rfemur 11.6158 4.21121 17.2589
rtibia -8.43346
rfoot -13.7578 -14.2704
rtoes 2.38058
lfemur 14.8042 -8.75994 -12.1293
ltibia -12.347
lfoot -6.61665 18.2299
ltoes -13.5195
500
root -0.678164 18.1326 5.59849 0.714355 -1.68133 -2.79589
lowerback 4.97902 1.19593 0.776854
upperback -1.97127 1.64906 -0.0468108
thorax -4.80877 0.792657 -0.633299
lowerneck -12.982 -3.40604 -1.16426
upperneck 19.6027 -5.13974 3.11546
head 8.34426 -2.20627 0.667603
rclavicle -5.95733e-015 -2.78299e-015
rhumerus -54.6026 -11.0376 -81.643
rradius 44.0743
rwrist 7.65562
rhand -2.33528 -40.6765
rfingers 7.12502
rthumb 23.3518 -69.28
lclavicle -5.95733e-015 -2.78299e-015
lhumerus -45.4356 6.06033 84.0019
lradius 35.8568
lwrist -7.23518
lhand -5.22187 -21.1721
lfingers 7.12502
lthumb 20.5802 7.75692
rfemur 11.5796 4.42351 17.3803
rtibia -8.55744
rfoot -13.8075 -14.1967
rtoes 2.97711
lfemur 14.6593 -8.3636 -11.9236
ltibia -12.1472
lfoot -6.78006 18.0207
ltoes -13.4866
501
root -0.683264 18.1347 5.59667 0.849092 -1.93709 -2.83624
lowerback 4.86277 1.26794 0.633563
upperback -2.00577 1.73848 0.0375453
thorax -4.78416 0.842933 -0.471414
lowerneck -12.9135 -3.37728 -1.21545
upperneck 19.5374 -5.09127 3.13937
head 8.31065 -2.18658 0.690919
rclavicle -3.72721e-017 9.14409e-015
rhumerus -54.6805 -11.0966 -81.9105
rradius 44.4781
rwrist 7.7277
rhand -2.1546 -40.5819
rfingers 7.12502
rthumb 23.5251 -69.1633
lclavicle -3.72721e-017 9.14409e-015
lhumerus -45.5914 4.80212 84.9649
lradius 37.0218
lwrist -5.33607
lhand -5.35995 -21.3975
lfingers 7.12502
lthumb 20.4475 7.5459
rfemur 11.4341 4.66619 17.4374
rtibia -8.65051
rfoot -13.7509 -14.23
rtoes 2.97902
lfemur 14.4865 -8.2563 -11.8522
ltibia -11.9613
lfoot -7.02727 18.1114
ltoes -13.0219
502
root -0.678413 18.1375 5.59064 0.958615 -2.20775 -2.82997
lowerback 4.8454 1.35641 0.61255
upperback -2.04902 1.85631 0.0584275
thorax -4.81943 0.90208 -0.448743
lowerneck -12.875 -3.37866 -1.1372
upperneck 19.535 -5.08787 3.03597
head 8.29776 -2.19017 0.6447
rclavicle 3.43525e-015 -6.36111e-015
rhumerus -54.6803 -10.9913 -82.2728
rradius 44.7
rwrist 7.63591
rhand -2.25479 -40.7279
rfingers 7.12502
rthumb 23.429 -69.3216
lclavicle 3.43525e-015 -6.36111e-015
lhumerus -45.7282 3.67461 85.7818
lradius 38.0579
lwrist -3.61238
lhand -5.64384 -22.0685
lfingers 7.12502
lthumb 20.1747 6.9039
rfemur 11.2625 4.92926 17.4266
rtibia -8.73401
rfoot -13.6146 -14.3293
rtoes 2.62695
lfemur 14.3254 -8.23546 -11.8921
ltibia -11.7845
lfoot -7.28774 18.3049
ltoes -12.5244
503
root -0.674344 18.1384 5.58607 1.03746 -2.47016 -2.80737
lowerback 4.81194 1.43959 0.556391
upperback -2.06739 1.96461 0.0835745
thorax -4.8212 0.957925 -0.400284
lowerneck -12.8787 -3.38486 -1.06689
upperneck 19.5973 -5.09578 2.95014
head 8.31519 -2.19642 0.603312
rclavicle -2.45996e-014 -5.1684e-015
rhumerus -54.6468 -10.8936 -82.5595
rradius 44.8834
rwrist 7.866
rhand -1.93435 -41.0717
rfingers 7.12502
rthumb 23.7364 -69.6258
lclavicle -2.45996e-014 -5.1684e-015
lhumerus -45.7853 2.70285 86.5212
lradius 39.0087
lwrist -2.22898
lhand -5.99358 -22.602
lfingers 7.12502
lthumb 19.8385 6.40552
rfemur 11.1171 5.18385 17.407
rtibia -8.7675
rfoot -13.5162 -14.4032
rtoes 2.31362
lfemur 14.2396 -8.19644 -11.9524
ltibia -11.6731
lfoot -7.48016 18.4794
ltoes -12.2427
